<?xml version="1.0" encoding="utf-8"?>
<!-- Generator: Adobe Illustrator 24.1.0, SVG Export Plug-In . SVG Version: 6.00 Build 0)  -->
<svg version="1.1" id="圖層_1" xmlns="http://www.w3.org/2000/svg" xmlns:xlink="http://www.w3.org/1999/xlink" x="0px" y="0px"
	 viewBox="0 0 474.2 366.8" style="enable-background:new 0 0 474.2 366.8;" xml:space="preserve">
<style type="text/css">
	.st0{fill-rule:evenodd;clip-rule:evenodd;fill:#FF6161;}
	.st1{fill-rule:evenodd;clip-rule:evenodd;}
</style>
<g>
	<g transform="translate(-54.000000, -30.000000)">
		<path class="st0" d="M173.6,250.1c2.4-1.6,7.4-7.5,9.9-8.9c5.8-3,31.4-9,32.2-9.3c1.3-0.5,9.5-2.4,14.3-3.6
			c11.3-2.8,51.7-20.7,62.4-25.3c1.4,3.6,12.6,19.4,10.7,21c-6.3,5.3-17.7,12-25.1,15.8c-5.9,3.1-12.2,5.6-18.6,7.7
			c-7.2,2.4-12.2,4.9-19.4,7.3c-7.1,2.4,1.4,9.9,5,11.4c4.1,1.7,10.4,2.6,14.6,4.1c-7.3,11.4-13.5,25.2-14.7,38.9
			c-0.3,3.3-2.8,6.3-6.9,5.3c-2.1-0.5-21.5-3.1-24.7-3.8c-21.1-4.8-59-30-49.3-55.9C166.5,255.9,171.6,251.5,173.6,250.1z"/>
		<path class="st1" d="M185.5,112.9c1.6-0.1,5.7-3.3,3.5-4.9S185.3,111.8,185.5,112.9 M103.3,125c0.4-0.1,0.2-2.3-0.4-2.6
			c-2-0.9-2.2,2.5-2.3,3.4c-0.1,1.2-0.2,4.4,2.3,3.5C104.3,128.8,103.4,125.9,103.3,125 M224.3,135.6c-0.1,2,4,5.9,5.5,3.6
			C231.1,137.2,224.4,131.5,224.3,135.6 M80.4,90.1c1.2,3,7-1.1,7.2-3.3C88.1,82.3,80.3,87.1,80.4,90.1 M129,103.1
			c2.7-0.2,6.3-3.7,8.9-5c1.8-0.9,6.6-1.9,7.1-3.9c0.5-1.7-7.7,2-8.4,2.3C133.4,98,130.5,99.7,129,103.1 M332.9,79.3
			c2.2-1.7,4.8-2.8,7.6-2.7c1.4,0,4.3,0.9,4.4-1.5c0.2-3.9-12.1,0.9-14,1.6C331.5,77.6,332.2,78.4,332.9,79.3 M197.9,231.1
			c-1.6-2.6-4.4-4.2-6.6-6.4c0.8,3.7-1,7-2.2,10.3C192,233.7,194.9,232.4,197.9,231.1 M473.6,287.3c0.9-2.9,1.8-5.8,2.8-8.7
			c1.1-3.2,1.7-3.5-1-5.8c-2.3,4.3-4.5,8.6-6.8,12.9C470.1,286.4,471.8,287.1,473.6,287.3 M238.2,75.3c-3-3.4-17.1-3.6-15.4,3.9
			c0.6,2.6,4.1-0.2,6.3-0.8C231.3,77.8,237.4,77.8,238.2,75.3 M237.7,123.4c-0.4-0.9-1.1-4-2.2-4.2c-1.1-0.2-5.2,3-6,3.5
			c-3.9,2.5-7.7,5.2-11.5,7.8c1.5,0,2.8-0.5,4.2-0.5c1.7,0,3,0.7,4.6,0.3C230.5,129.4,234.7,125.4,237.7,123.4 M241.6,46
			c0.3-1.6,18,3.1,20.1,4c1.2,0.5,7.1,3.6,5.8-1.1c-0.7-2.7-7.6-4.7-9.8-5.4c-5.6-1.9-11.5-3.2-17.5-2.9c-1.2,0.1-9.9,0.6-6.3,4.1
			C235.2,45.8,239.7,45.5,241.6,46 M245.5,259.2c3.3,1.6,6.6,2.9,10.1,4.1c1.5,0.6,3.9,2,5.6,1.7c1.4-0.3,1.8-2.4,2.5-3.8
			c2.6-5.1,5.8-9.3,9.7-13.5c-1.8-1.3-11.1,4.5-13.4,5.4s-4.5,1.7-6.7,2.8C251.3,256.8,247.1,257.7,245.5,259.2 M303.7,215.4
			c4.8-2.2,9.3-6,13.3-9.5c4.5-4,8.6-8.1,11.9-13.2c-2,0.1-6.4,6.5-6.4-0.5c0-3.6,4.8-7,6.3-10.3c-3.8-2.1-7.2,10.6-11.5,7.5
			c-4.2-3,2.4-13.1,3.7-16.3c-2.4-1.6-16.3,16.5-18.3,18.8c-1.3,1.5-4.2,3.4-4.9,5.1c-0.4,1-0.5,4.2-0.3,5.1
			c0.4,1.9,2.6,4.3,3.5,6.1C302.1,210.5,303.1,212.9,303.7,215.4 M501.7,280.8c-4.1-5.8,0.1-8.4,3.5-13.3c2.7-3.9,5.2-8.2,6.9-12.5
			c4.3-10.8,8.1-20.9,10.2-32.4c-2.9,1.3-4.7,6.4-6.2,9c-2,3.6-3.7,7.3-5.8,10.8c-4.1,6.5-8,13.4-13.2,19c-2.3,2.5-4.3,5.4-7,7.7
			c-1.2,1-3.6,1.9-4.5,3.2c-0.9,1.2,0.1,2-0.2,3.5c-0.3,1.5-1.9,3.1-2.5,4.6c-0.9,1.9-1.7,3.8-2.6,5.7c-1.1,2-1.3,3.1-1.6,5.1
			c-0.3,2.2,0.6,2.4-1.3,4.4c3.5,1.5,6.9,3,10.4,4.6c1.2,0.5,2.3,1,3.5,1.5c0.2-0.5,0.5-0.9,0.7-1.4c0.9-0.9,1.8-3.2,2.4-4.4
			C496.6,290.9,499.1,285.8,501.7,280.8 M168,256.2c-9.8,25.8,24.7,47.6,45.9,52.4c2.9,0.7,5.8,1.5,8.7,2.3c3.2,0.8,6,0.6,9.2,1
			c2.5,0.3,3.7,2.2,6.1,2.8c4,0.9,3.7-2.1,4-5.3c1.2-13.6,8.2-26.8,15.5-38.1c-3.4-1.2-6.7-2.5-10-3.8c-2.8-1.1-7.2-4.3-10.2-4.5
			c-2.3-0.1-5.7,1.8-7.9,2.7c-3.7,1.4-7.3,2.6-11.1,3.6c-6.7,1.7-14.1,4-20.9,4.1c-2,0.1-7.4,1-8.9-0.3c-2.7-2.3,1.1-4.3,3.3-5.1
			c13.6-5,28-7.1,41.7-12.2c7-2.6,14-5.6,21-8.1c6.1-2.2,12.5-4.2,18.3-6.9c7.8-3.6,15.6-8.1,22.3-13.4c1.3-1.1,4.2-2.6,5.1-4.2
			c0.8-1.4,0.7,0,0.5-1.6c-0.1-1.2-1.6-2.8-2.2-3.9c-2.2-4.2-4.2-8.4-5.9-12.8c-10.7,4.6-20.9,10.9-31.5,15.8
			c-10.6,4.9-22.6,8.4-34,11.2c-4.8,1.2-10.4,1.6-14.9,3.9c-1.9,1-3.8,2.1-5.8,2.7c-0.6,1.1-1.2,1.4-1.8,0.7
			c-0.4-0.4-0.8-0.6-1.4-0.5c-1.2,0.2-2.5,0.8-3.7,1.2c-5.9,2.3-11.5,5.1-17,8c-2.6,1.4-5.3,2.7-7.9,4.3c-1.4,0.8-2.6,1.7-3.7,2.8
			C169.8,256.1,170.2,257.2,168,256.2 M388.8,102.9c2.5,0,4.7-1.3,7.3-1.2c4.1,0.1,7.3,3.3,9.6,6.3c4.7,6,3.5,13.3,1.1,20
			c-1.1,3.2-2.7,6.3-4.6,9.1c-1.7,2.5-4.8,4.9-5.9,7.6c-2,4.6,2,2.6,4.4,1.7c3-1.2,5.9-2.8,8.5-4.8c11.5-9.2,20.3-21.9,23.2-36.6
			c1.4-7.2,1.3-15.5-3.7-21.3c-4.6-5.3-12.4-7.1-19.1-6.1c-7.3,1.1-13.8,4.1-19.8,8.1c-1.7,1.2-3.3,2.4-4.9,3.7
			c-2.1,1.7-3.4,1.7-2.9,4.4c0.4,2,1.5,4,2.2,5.9C385.7,103.1,385.2,104,388.8,102.9 M396.7,163.8l-0.5,0.9c3.5,0.2,6.7-2.9,9.6-4.4
			c3.8-1.9,7.2-4.6,10.6-7.2c5.9-4.7,11.9-10,16.3-16.2c9.9-13.8,18.8-31.4,16.1-48.9c-2.9-18.9-19.4-26.2-37.1-23.7
			c-7.9,1.1-15,4.7-22.1,8.3c-3.6,1.8-6.6,4.2-9.9,6.4c-1.7,1.2-3.3,1.3-3.4,3.4c-0.1,1.6,2.6,5.1,3.3,6.5
			c8.9-9.1,18.5-16.6,32-17.1c16-0.6,25.5,14.7,25.5,29.2c-0.1,14.3-6.2,28-16,38.3c-4.5,4.7-8.7,8.4-14.2,11.8
			c-2.7,1.7-4.7,3.2-7.8,4.3c-2.2,0.8-1.9,0.4-2.5,2.4C396.2,159.5,396.7,162.1,396.7,163.8 M309.6,357.8c-0.2,2.6-0.7,5.1-1.3,7.6
			c-0.2,0.9-1.4,3.7-1.2,4.8c0.3,1.7-0.1,0.6,1.4,1.5s3.3,0.9,5,1.1c1,0.2,4.8,2,5.5,1.7c1.1-0.5,1.1-2.2,2.3-2.9
			c1.7-0.9,4.1-0.1,5.7,0.6c4.2,2,7.1,6,11.2,8.2c7.2,3.9,15.8,6.1,23.8,7c4.4,0.5,8.8,1.3,13.1,0.3c3.4-0.8,7.8-0.7,9.7-4.4
			c-16.4-4.5-41.4-10-47.9-28.9c-3.5,3.2-9.4,1.5-13.7,1c-4.7-0.5-8.9-0.4-13.2-2.5C309.6,354.7,309.5,356.1,309.6,357.8
			 M164.3,241.2c7.7,0.5,15-3.2,19.8-9.4c1.2-1.5,2.4-3.1,3.1-4.9c0.2-0.5,0.3-0.9,0.5-1.4c0.7-1.3,0.4-1.9-1-1.8
			c-0.8-1.1-2.8-1.4-2.2-3.4c0.4-1.5,2-1.5,3.3-1.9c-0.7-1.1-1.1-1.7-2-2.7c-2.5,2.3-7.1,6.7-8.8,1.5c-0.8-2.5,0.6-4.9,0.3-7.3
			c-0.2-1-1.4-3.5-2.1-4.1c-3.9-3.2-9.5-1.9-13.6,0c-2.8,1.3-3.5,1.9-3.9,4.8c-0.5,3-0.9,6-1.4,9c1.7-0.9,2-2.8,3.1-4.2
			c0.4,0.8,0.8,1.5,1.3,2.3c0.6-0.3,1.1-0.3,1.6,0.1c0.8,1.3,0.3,3.1,0.1,4.5c2.7-0.3,3.9,2.8,1.1,4.1c-2.9,1.3-4.2-2.2-4.3-4.5
			c-1.1,1.3-2.2,0.6-2.9,1.3s-1,2-1.3,3.5c-0.4,2.5-1.6,6-0.5,8.5C155.8,238.9,160.7,240.8,164.3,241.2 M388.1,123.3
			c-2.6,3.6-6.9,8.2-7.8,12.5c2.8-1.7,8.8-9.6,10.3-3.3c0.9,3.6-3.6,8-4.7,11.5c4.4-1.5,7.6-6,10.4-9.6c3.5-4.5,7.1-10.4,8-16.2
			c0.7-4.6-2.5-8.9-7.3-9.4c-2.4-0.2-5,0.2-7.3,0.7c-1.1,0.3-2.7,0.6-3.6,1.2c-1.2,0.7-1.4,2.4-2.5,1c-1.5,2.8-3,5.7-4.5,8.5
			c1.5-0.5,4.6-2.9,6.2-2.6C387.6,118,388.1,121.5,388.1,123.3 M148.8,53.8c-6.7,0.2-13.7,1.6-20,3.7c-1.6,0.5-8.2,2.4-6.8,5.1
			c0.9,1.8,5.9-0.7,7.4-1.2c6.5-1.8,13.1-3,19.7-4.1c1.6-0.3,7-0.2,7.3-2.3C156.8,52.4,150.7,53.7,148.8,53.8 M331.2,346
			c-3.6,0.4-7.1,0.3-10.8-0.2c-3.1-0.4-6.2-1.6-9.2-1.6c0,3.3-0.2,3.3,3.2,4c2.4,0.5,4.8,0.8,7.3,1.1c4.3,0.6,9,2.3,13.3,1.4
			c-0.1-0.6-0.4-4.4-0.9-4.8C333.9,345.8,331.5,346,331.2,346 M272.5,105c1,0.6,3.3,3.2,4.6,3.3c-0.4-3-3.8-8.2-7.6-6.3
			c-0.9,0.5-2.9,2.7-2,3.7C267.9,106.2,271.2,105,272.5,105 M237.1,131.6c0-0.5,0.1-1,0.1-1.6c-1.4,0.8-3.1,1.2-4.1,2.5
			c1.2,0.5,2.4,1.1,3.6,1.6C236.8,133.3,236.9,132.4,237.1,131.6 M347.7,210.9c6.6,2.3,12.7,5.4,17.6,10.7
			c4.2,4.6,6.2,12.6,7.2,18.5c2.5,14.8-2.4,28.5-5.6,42.6c-1.6,7.2-4.1,14.1-6.4,21.1c-2,6.1-3.7,12.5-6.5,18.3
			c-2.4,4.9-5.4,9.8-7.4,14.9c-1.1,2.7-2.9,12.2-7.1,9.2c-1.2,3-1.4,2.8-0.2,4.9c0.9,1.5,3.9,3.6,5.3,4.9c3.8,3.3,8.6,6,13.1,8.3
			c8.2,4.2,16.9,7.4,25.4,11.2c3.7,1.7,7.8,3.7,6.9,8.6c-0.7,4.1-3.1,7.2-6.7,9c-3.5,1.7-8.4,3-12.2,3.6c-2.3,0.3-2.8-0.6-4.6-0.9
			c-2-0.4-4.4,0.3-6.6,0.3c-9.5-0.1-17.8-2.5-25.5-8c-2.7-2-6.8-7.3-10.4-7.3c-1.8,0-1.4,1.1-3.1,1.8c-2,0.8-5.4-0.7-7.4-1.1
			c-4.2-0.8-8.4-1.5-11.2-5.1c-3-3.9-1.9-8.7-0.6-13c1.5-4.9,3.9-9.8,4.9-14.7c0.3-1.2,0.5-3.4,0.2-4.7c-0.4-1.9-2.3-3-2.4-5.1
			c0-0.6,0.9-1.4,1-2.1c0.3-1.4,0.3-2.9,0.4-4.3c0.3-2.6,0.8-5,1.2-7.6c0.9-5.8,2.7-10.9,4.5-16.5c1.7-5.4,3.3-9.4,6.6-14.1
			c1.7-2.4,7.4-11,4.6-13.5c-3.8,7.5-8.2,13.3-14.1,19.2c-4.4,4.5-8.8,10.7-14.4,13.9c-6.1,3.6-13.6,5.7-20.4,7.5
			c-3.2,0.9-5.9,2.9-9.4,3.2c-3.8,0.4-7.6-0.1-11.3-0.9c-1-0.2-4-1.8-5-1.7c-1.4,0.2-3.4,2.6-4.9,3.1c-3.7,1.1-6.2-1-9-2.9
			c-3-2.1-4-2.6-7.5-2.9c-4.3-0.3-8.5-1.8-12.7-2.7c-7.4-1.6-13.7-4.9-20.5-8.4c-7.7-4-14.3-9.4-20.2-15.9
			c-8.6-9.5-20.5-35.8-6.5-45c-8.2-1.1-15.8-4.7-16.8-14c-0.5-4.9,0.5-10.3,1.7-15c0.6-2.1,1.2-4.3,1.9-6.4c0.5-0.7,0.7-1.5,0.8-2.4
			c0.3-1.1-0.1-1.7-1.3-1.7c-2.2-2.5-3.8-4.8-4.2-8.4c-0.1-1.1-0.3-2.9,0.6-3.9c0.4-0.4,0.8-0.7,1.4-0.8c1.3,0.1,1.6-0.6,1.1-1.9
			c0.6-1.9-0.3-3.3,2-4.1c0.7,0.2,1.5,0.3,2.2,0.5c0.9,0.4,1.6,0.1,1.8-0.9c2.2-0.9,1.2-2.1,4.2-1c1.8,0.7,3.5,1.8,4.8,3.2
			c1.6-1.1-2.1-7.6-2.2-9.7c-0.3-4.9,1.7-9,4.4-13c5.1-7.8,12.3-14.6,19.4-20.7c13.5-11.6,27.8-22.7,43.1-31.9
			c-6.3-4.4-13.7-5.6-21.2-3.5c-6.9,1.9-12.5,5.3-18.9,8.3c-5.9,2.8-12.2,3.9-14-3.6c-2.1-8.4,4.6-11.6,10.7-15.4
			c-1.5-1.1-6.5-0.3-8.3-0.2c-4.2,0.3-8.2,1.2-12.2,2.1c-1.9,0.4-3.7,0.3-5.7,0.7c-2.9,0.6-5.9,1.2-8.8,2.1c-6.9,2-13.8,5-19.7,9
			c-5.2,3.5-8.7,8.4-12.9,12.9c-4.7,5.2-9.3,10.3-16.3,12.2c-3.3,0.9-7.1,1.7-9.5-1.2c-2.2-2.7-2.3-6-2.2-9.4
			c0.2-7.4,3.7-15.3,7.9-21.4c4.5-6.5,10.5-10.3,16.2-15.6c-8.2,0.6-16.2,4.9-23.8,7.9c-1.6,0.6-3.2,1.3-4.8,1.9
			c-1.7,0.6-2.8,0.2-4.5,0.5c-3.7,0.7-6.9,2.2-10.6-0.3c-6.9-4.7,0-14.4,4.7-17.4c6.6-4.1,13.3-7.6,20.6-10.5
			c-3.9-4.3-0.6-10.3,3-13.4c4.6-3.8,10.4-6,15.9-8.1c4.4-1.6,8.7-3.2,13.2-4.2c4.8-1,10.3-2.6,15.2-2.4c4.5,0.1,8.6-0.7,13.2-0.8
			c3.8-0.1,7.7,0,11.5-0.1c10.3-0.3,20.6,0.4,30.7,1.2c-8-23.3,44.5-16.1,55.7-13.1c10.2,2.8,21.8,6,30.4,12.5
			c3.6,2.8,7.1,5.9,10.3,9.2c4.7,4.8,7.4,11.1,9.9,17.2c6.4-3.1,12.4-6.5,19.4-8.1c6.6-1.5,13.4-3.5,20.1-4.6
			c5.1-0.8,12.4-1.4,16.7,2.2c4.6,3.9,7,9.9,9.8,15.1c13.3-12.6,28.1-21.8,47-21.2c18.5,0.6,30.7,16.6,32.9,33.9
			c2.5,19.1-6,39-17.6,53.8c-5.2,6.6-10.5,13-17.5,18c-3.4,2.5-7.1,5.1-10.9,7.1c-1.9,1-3.9,1.8-5.9,2.6c-0.9,0.3-1.8,0.7-2.7,0.9
			c-2.7,0.6-2.1-0.2-3.1,2.1c-0.8,1.9-0.7,5.1-1,7.2c-0.4,2.4-0.6,4.8-1.2,7.1c-1,4-2,8-3.3,11.9c-2.4,7.5-5.5,15-9.4,21.8
			c3.3,1.4,7.9,1.6,11.4,2c3.8,0.5,7.6,1.5,11.6,2.6c7.9,2.2,15,4.1,22.5,7.4c7.8,3.4,14.8,8.6,22.3,12.7c6.9,3.8,13.9,8.5,20.3,13
			c1.5,1.1,2.5,2,3.7,3.4s1.6,1.7,3.1,2.9c0.7,0.5,2.6,3.3,3.4,3.4c1.4,0.2,1.2-0.8,2.2-2.3c2.2-3,5.4-5.3,7.6-8.3
			c1.9-2.5,3.8-5.1,5.8-7.3c4.8-5.3,8.8-11.2,12.2-17.5c1.8-3.3,3.7-6.5,5.6-9.6c1.9-3.1,5.3-7.2,9.2-7c-0.3-1.6-1.3-1.8,0.4-2.8
			c1.1-0.6,3.2,0.4,4,1c2.2,1.7,2.3,4.9,2.2,7.4c-0.4,6.3-1.7,12.5-3.5,18.5c-2.2,7.2-5,13.5-8,20.3c-2.4,5.4-5.4,12.7-11.4,15.1
			c4,5.7,2.1,10.4-0.6,16.5c-2,4.5-4.6,9.1-8.5,12c-4.5,3.3-9.3,0.5-13.9-1.7c-2.8-1.3-11.4-4.5-9.7-8.5c-2.1-0.3-3.5-1.8-5.5-2.3
			c-2.1-0.5-1.7,0.3-3.9,0.6c-1.7,0.2-4.2-1.3-5.8-1.8c-2.6-0.9-5.3-1.8-7.9-2.7c-7.4-2.6-14.7-5.1-22.2-7.1c-14-3.8-28.1-6-42-9.4
			c-2.8-0.7-5.6-1.3-8.5-1.9c-0.6-0.1-3.7-0.3-4.1-0.9c-0.7-1.1,1.4-7.4,1.5-8.7c1.1-8.4,0.8-17.6-0.8-26c-0.7-3.5-3.7-7.9-3.6-11.3
			c0-2.3,2-4.7,3.2-6.8c2.9-5.1,6-10.6,8.1-15.8c3.3-8.1,5.3-17.2,6.8-25.8c0.8-4.5,1.6-9.4,1.9-14c0.2-3.5-0.1-7.1,0.4-10.7
			c-1.9,0.2-4.6,1.2-6.4,0.1c-2.2-1.3-2.8-5.2-2.5-7.5c-7.5,1.3-7.2-5.8-6.8-11.4c-13.5,0,3.8-20.1,6-24.5c1-2,1,0.2,0.5-2.8
			c-0.2-1.4-1.1-2.8-1.6-4.1c-1.1-2.7-2.4-5.4-3.7-8c-2.8-5.6-5.9-10.9-9.4-16.1c-3.1,2.2-5.9,4.7-8.5,7.4c1.7-4.3,6.7-9.7,4.6-14.6
			c-2-4.6-8.7-4.2-12.7-3.4c-10.8,2.3-21.1,5.6-31.3,9.4c3.2,1.8,8,0.4,11.2-1c3.9-1.7,8.1-3.5,12.3-4.4c3.7-0.8,8.5-0.5,7.4,4.4
			c-0.9,4-4.8,7.9-7.4,10.9c-5.7,6.6-12.8,11.7-19.8,16.8c-7.5,5.5-14.8,11.4-22.4,16.8c-13.8,9.6-28.6,18-42.9,27
			c-7.4,4.7-15.8,8.4-23.8,11.9c-8.8,3.8-17.3,7.9-26.5,10.9c-5.1,1.7-10.1,3-15.1,4.9c-3.1,1.2-8.6,3.6-10.7,0
			c-4.2-7.2,11-16.6,15.2-21c2.9,2.8-11.3,13.2-10.2,17.3c0.9,3.2,4.3-0.9,5.9-1.8c2.6-1.4,5.8-2.1,8.4-3.7
			c5.4-3.3,11.9-7.1,13.1-13.9c-0.9-0.9-0.9-1.8,0-2.5c0.4-0.5,0.7-1,0.9-1.5c0.4-1.1,0.5-2.4,0.7-3.5c0.6-3.4-0.9-6.5,0.5-9.8
			c-8.4,6.3-16.4,13.5-24.4,20.4c-7.1,6.2-14.6,14.2-17.2,23.4c-0.3,1.2-0.9,2.5-0.8,3.8c0.1,2.4,0.4,1.9,2.3,2.7
			c2,0.8,4.8,0.7,6.9,0.8c1.2,0,6.6-1.2,5.5,1.4c-0.6,1.5-4.3,1.5-5.7,1.6c-3.4,0.4-5.2,0-3.6,3.6c0.7,1.6,2.2,2.7,3.3,4
			c3.1,3.5,4.9,8.9,7.3,13c2.8,4.7,5.9,9.2,9.2,13.5c1.4,1.8,3.2,5.2,5.1,6.5c1.8,1.2-0.3,1.1,2.6,0.6c1.3-0.2,2.4-1,3.7-1.3
			c7.3-1.8,14.8-3.8,22.3-6c9.6-2.8,19.8-5.2,29-9.2c8.2-3.6,16.4-7.9,24.8-11.6c2.4-1.1,4.9-1.8,6.8-3.7c2.3-2.4,4.2-5.5,6.3-8
			c3.6-4.3,6.9-8.8,10.7-12.9c2.9-3.1,8-8.8,12-10c7.7-2.3,3.6,9.4,2.6,12.4c1.8,0.4,2.8-1.9,4.9-1.2c2.5,0.8,2.8,4.2,3.1,6.3
			c0.1,0.6-0.7,1.6-0.4,2.1c0.1,0.2,1.7,1.2,2.1,1.6c1.2,1.7,0.9,3.7,0.5,5.4c-2.3,9.2-10.4,16-16.3,22.8c2.7-0.5,4.6-2,7.1-2.8
			c2.4-0.7,4.7-0.7,7.1-0.9c2.5-0.2,4.9-1.1,7.4-1.2C342.5,209.8,345,210.6,347.7,210.9"/>
		<path class="st1" d="M66.3,127.9c-1.5,1-1.9,1.9-1.9,4.1c0,0.9,0,4.3,1.3,4.2C66.9,136.1,66.3,129.1,66.3,127.9 M58.7,133.5
			c0.7-7.1,3.3-14.3,9.4-18.7c1.5-1.1,3.2-1.1,4.9-1.7c1-0.4,2.6-2.3,3.7-2.1c4.2,0.8-0.6,6.4-1.3,7.8c-2.2,4.5-2,8.5-2,13.3
			c0,3.7,0.8,9.9-1,13.2c-2,3.6-6.3,1.2-8.7-0.9C60.6,141.7,58.3,137.5,58.7,133.5"/>
		<path class="st1" d="M131.6,154.4c0,4,3.2,1.3,3.1-1.5C134.6,148.7,131.5,151.3,131.6,154.4 M148.7,132.5
			c-3.5,3.2-6.2,4.9-6.9,9.8c-0.5,3.7,0,7.3,0,11c0,6.2-5,12.8-10.4,5.6c-3.9-5.2-2.5-13.4,0.7-18.6c1.7-2.7,4.1-5.5,6.9-7.2
			C141.1,131.9,147,129.4,148.7,132.5"/>
		<path class="st1" d="M99.6,228.3c-0.4,1-1.4,4.9,0.6,4C101.9,231.6,100.8,228.9,99.6,228.3 M89.3,216.2
			c-0.3-1.5-0.2-10.8,2.4-10.1c2,0.5,2.3,5.3,3.2,6.9c3,6.2,10,10,12.4,16.3c2.7,7.1-5.4,7.3-9.8,4.4
			C92.4,230.4,89.5,222.1,89.3,216.2"/>
		<path class="st1" d="M83,178.1c1.1-1.5,1.2-2.3,0.6-3.6C82.8,175.4,83,176.6,83,178.1 M83.8,184.8c-5.8,0.6-6.1-10-5.1-13.7
			c0.8-2.9,2.5-6,4.2-8.4c0.4-0.5,3.7-4.8,4.4-4.8c2.5,0,1.8,2.8,1.6,3.9c-0.9,3.3-1.2,6.1-1,9.8C88.2,175.6,90.1,185,83.8,184.8"/>
		<path class="st1" d="M346.4,92.5c-8.3,6.9-16.1,14.4-25.1,20.5c-4.4,3-9,5.6-13.4,8.6c-2.2,1.5-4.5,2.9-7,4
			c-2.2,1-3.6,1.1-1.8-1.2c1.2-1.6,3.9-2.7,5.6-3.8c2.5-1.7,5-3.7,7.6-5.2c4.7-2.7,9.4-4.9,13.8-8.2c3.9-2.9,7.9-5.8,11.5-9
			C339.2,96.9,344.5,90.8,346.4,92.5"/>
		<path class="st1" d="M346.6,117.6c3.7,3.2-5.6,11.9-7.7,13.9c-2.2,2.1-4.7,3.9-7.1,5.8c-0.9,0.6-5.5,5-6.7,4.6
			c-2.3-0.7,0.7-3.5,1.5-4.2c2.6-2.4,5.2-4.7,7.7-7.1c2.3-2.2,4.7-4.2,6.9-6.5C343,122.1,344.5,119,346.6,117.6"/>
		<path class="st1" d="M71.1,245.8c-1-2.2-2.7,0.2-1.8,1.4C70.1,248.2,71,246.2,71.1,245.8 M65.4,241.4c0.5-3.3,1.7-5.1,4.8-2.3
			c2.1,1.9,6.4,7.5,6,10.5c-0.5,3.9-4.9,2.8-7.1,0.8C66.8,248.1,65.8,244.3,65.4,241.4"/>
		<path class="st1" d="M72.2,306.5c-3.8-0.3-7-3.2-8.7-6.6c-1.4-2.9-2.6-7.5,2.1-6C68.8,294.8,80.8,306.9,72.2,306.5"/>
		<path class="st1" d="M118.3,287.7c-2.9,0.7-5.8-1.3-7.7-3.4c-1.1-1.4-3.7-6.1-2.4-8.1c1.8-2.7,4.6,2.8,5.6,3.9
			C115.3,281.7,120.2,285,118.3,287.7"/>
		<path class="st1" d="M120.9,213.3c-2.3-1.1-4.4-2.4-5.4-4.9c-0.6-1.6-1.1-6.5,1.5-6.5C120.1,202,127,212.8,120.9,213.3"/>
		<path class="st1" d="M104.8,162.6c3.1-0.1,3.8,1.6,4.2,4.1c0.3,1.7,1.7,7.3,0.2,8.4c-2.1,1.6-5.4-2.1-6.1-3.6
			C101.7,168.5,103.7,165.5,104.8,162.6"/>
		<path class="st1" d="M157.7,331.4c1.5,0.7,4.9,2.2,3.6,4.5c-1.4,2.5-5.3,0.1-6.7-1c-0.6-0.4-4.5-3.4-4.3-4.4
			C150.6,328.5,156,331.2,157.7,331.4"/>
		<path class="st1" d="M58.8,177.9c1,2.6,2.2,11.4-3.2,6.6c-1.6-1.5-1.9-3.3-1.3-5.3C55.1,176.3,56.3,176.9,58.8,177.9"/>
		<path class="st1" d="M345.1,145c-1.2-2.4,1.8-4,3.3-5.6c1-1,5.4-6.6,6.8-6.3C358.2,133.8,346.6,143.9,345.1,145"/>
		<path class="st1" d="M104.7,322c2.8-0.5,3.5,2.7,5.3,4c0.8,0.6,3.5,1.1,2.9,2.3C111.5,331.7,104.6,324.2,104.7,322"/>
		<path class="st1" d="M128.5,248.1c1.9-0.8,7.5,3.5,5.9,5.4C132,256.3,128.7,249.6,128.5,248.1"/>
		<path class="st1" d="M169.4,311.1c-1.4,0.1-7.4-1.7-5.2-4.2C165.7,305.1,169.9,309.5,169.4,311.1"/>
		<path class="st1" d="M98,299.1c-1.4,0.6-6.5-0.6-4.9-2.8C94.6,294.2,98,297.4,98,299.1"/>
		<path class="st1" d="M139.4,308.6c1.6-0.2,2.8,0.8,3.1,2.5C140.4,311.3,139.8,310.9,139.4,308.6"/>
		<path class="st1" d="M352.6,65.6c0.7,0,1.4,0,2.1,0C354,65.6,353.3,65.6,352.6,65.6"/>
		<path class="st1" d="M341.7,209.7c-1,0-2.1,0-3.1,0C339.7,209.7,340.7,209.7,341.7,209.7"/>
		<path class="st1" d="M200.5,41c0,1-0.1,2.1-0.1,3.1C200.4,43.1,200.5,42,200.5,41"/>
		<path class="st1" d="M521.2,216.9c0.3,1.2-0.2,1.3-1.5,0.6C520.2,217.3,520.7,217.1,521.2,216.9"/>
		<path class="st1" d="M491.8,307.2c0.5,0,1,0,1.6,0C492.8,307.3,492.3,307.2,491.8,307.2"/>
		<path class="st1" d="M393.5,223.9c-0.9,0.7-1.7,0.8-2.6,0C391.8,223.9,392.6,223.9,393.5,223.9"/>
		<path class="st1" d="M374.1,135.7c0,0.9,0,1.7-0.1,2.6C374.1,137.4,374.1,136.6,374.1,135.7"/>
		<path class="st1" d="M418.8,55.8c-0.9,0-1.7,0-2.6,0C417.1,55.5,418,55.6,418.8,55.8"/>
		<path class="st1" d="M165.8,45.3c-0.9,0.1-1.7,0.1-2.6,0.2C164.1,45.4,164.9,45.4,165.8,45.3"/>
		<path class="st1" d="M187,45.5c-0.7-0.1-1.4-0.1-2.1-0.2C185.6,45.4,186.3,45.4,187,45.5"/>
		<path class="st1" d="M198.4,46.3c-0.7,0.3-1.4,0.4-2.1,0C197,46.3,197.7,46.3,198.4,46.3"/>
		<path class="st1" d="M136.8,47.7c-0.9,0.2-1.7,0.4-2.6,0.5C135.1,48.1,135.9,47.9,136.8,47.7"/>
		<path class="st1" d="M374.6,258.3c0,0.5,0,1-0.1,1.6C374.6,259.4,374.6,258.9,374.6,258.3"/>
		<path class="st1" d="M89.4,216.4c0,0.3,0,0.7,0,1C89.5,217.1,89.4,216.8,89.4,216.4"/>
		<path class="st1" d="M524.4,214.6h-2.6C522.7,213.9,523.5,214,524.4,214.6"/>
		<path class="st1" d="M347.4,210.9c-0.7-0.1-1.4-0.2-2.1-0.3C346,210.7,346.7,210.8,347.4,210.9"/>
		<path class="st1" d="M158,331.3c-0.9-0.2-1.7-0.3-2.6-0.5L158,331.3z"/>
		<path class="st1" d="M332.2,182.8c0-0.5,0-1,0-1.6C332.1,181.8,332.2,182.3,332.2,182.8"/>
		<path class="st1" d="M168.4,45.5c-0.5-0.1-1-0.1-1.6-0.2C167.3,45.4,167.9,45.4,168.4,45.5"/>
		<path class="st1" d="M253.2,32.7c-0.5-0.2-1-0.3-1.6-0.5C252.2,32.4,252.7,32.5,253.2,32.7"/>
		<path class="st1" d="M314.8,381.7c0.3,0,0.7,0,1,0.1C315.5,381.8,315.2,381.8,314.8,381.7"/>
		<path class="st1" d="M77.3,103.9c0.5,0,1,0,1.6,0C78.3,103.9,77.8,103.9,77.3,103.9"/>
		<path class="st1" d="M424.5,56.4c-0.9-0.1-1.7-0.1-2.6-0.2C422.8,56.2,423.7,56.3,424.5,56.4"/>
		<path class="st1" d="M151.8,53.9c-1.2,0-2.4,0-3.6,0C149.4,53.9,150.6,53.9,151.8,53.9"/>
		<path class="st1" d="M396.3,160.5c0,0.9,0,1.7,0,2.6C396.3,162.3,396.3,161.4,396.3,160.5"/>
		<path class="st1" d="M332.9,345.8c-0.7,0-1.4,0-2.1,0C331.6,345.8,332.2,345.8,332.9,345.8"/>
		<path class="st1" d="M406.4,71.6c1-0.1,2.1-0.2,3.1-0.3C408.5,72.2,407.5,71.6,406.4,71.6"/>
		<path class="st1" d="M327.2,346.1c-0.5,0-1,0-1.6-0.1C326.2,346.1,326.7,346.1,327.2,346.1"/>
		<path class="st1" d="M309.3,355.1c0,0.9,0.1,1.7,0.1,2.6C309.4,356.8,309.4,356,309.3,355.1"/>
		<path class="st1" d="M388.3,103.4c0.7-0.1,1.4-0.1,2.1-0.2C389.7,103.7,389,103.4,388.3,103.4"/>
		<path class="st1" d="M162.2,241.1c0.7,0.1,1.4,0.3,2.1,0.4C163.5,241.3,162.8,241.2,162.2,241.1"/>
		<path class="st1" d="M269.8,104.9c0.9-0.7,1.7-0.7,2.6,0C271.5,104.9,270.7,104.9,269.8,104.9"/>
		<path class="st1" d="M237.4,131c0-0.3,0-0.7,0.1-1C237.5,130.4,237.4,130.7,237.4,131"/>
		<path class="st1" d="M388,121.2c0,0.7,0,1.4,0,2.1C388.1,122.6,388,121.9,388,121.2"/>
		<path class="st1" d="M159.7,229.4c1.1,0.4,3.4,1.5,4.7,1.4c1.1-0.1,1.9-1.4,3-1.4c2.8,0,2.2,3.2,0.9,4.9
			C164.7,238.9,156.7,233.9,159.7,229.4"/>
		<path class="st1" d="M170.9,212.8c3.8,1,1.9,9.2-1.3,9.8c-3.7,0.7-4.4-6-3.6-8.5c1.9,1.1,0.7,5.2,3.1,4.1
			C170.7,217.5,170.5,214.2,170.9,212.8"/>
	</g>
</g>
</svg>
