<?xml version="1.0" encoding="utf-8"?>
<!-- Generator: Adobe Illustrator 24.1.0, SVG Export Plug-In . SVG Version: 6.00 Build 0)  -->
<svg version="1.1" id="圖層_1" xmlns="http://www.w3.org/2000/svg" xmlns:xlink="http://www.w3.org/1999/xlink" x="0px" y="0px"
	 viewBox="0 0 103.6 72.2" style="enable-background:new 0 0 103.6 72.2;" xml:space="preserve">
<style type="text/css">
	.st0{fill:#2C2B3C;}
</style>
<path class="st0" d="M19.6,18.3c-0.4,0.4-0.8,0.7-1.3,1.1c-0.1,0.1-0.4,0.2-0.6,0.4l-0.5,0.4c-0.8,0.5-1.6,0.7-2.6,0.9
	c-0.9,0.2-1.9,0.2-2.8,0.2c-1.6,0-3.3-0.2-4.9-0.9C5.6,19.7,4.4,19,3.5,18c-0.9-0.9-1.5-2.1-2-3.4C1.3,13.4,1,12.1,1,10.8
	c0-1.3,0.2-2.7,0.7-3.9c0.4-1.3,1.1-2.5,2-3.5c0.8-1.1,2-1.9,3.3-2.5C8.5,0.2,10.2,0,11.8,0s3.4,0.4,4.8,1.2
	c0.6,0.4,1.2,0.7,1.6,1.1c0.2,0.1,0.4,0.2,0.6,0.4l0.5,0.5L18,4.3l-0.1,0.1c-0.2,0.2-0.6,0.4-0.9,0.5c-0.1,0-0.2,0.1-0.4,0.1
	s-0.4,0-0.5-0.1c-0.1,0-0.4-0.1-0.5-0.2c0,0,0,0-0.1,0C15,4.3,14.4,4.1,13.7,4c-0.6-0.2-1.3-0.2-2-0.4c-0.9,0-2,0.2-3.1,0.7
	C7.8,4.7,7.1,5.3,6.5,6C6,6.6,5.5,7.4,5.3,8.2c-0.5,1.6-0.5,3.4,0,5c0.2,0.8,0.7,1.5,1.3,2.2c0.6,0.7,1.3,1.2,2.1,1.5
	c0.9,0.5,2.1,0.7,3.2,0.7c0.7,0,1.4-0.1,2-0.2c0.7-0.2,1.3-0.5,1.9-0.9c0.4-0.2,0.6-0.4,1.1-0.4s1.1,0.2,1.3,0.6l0,0L19.6,18.3z"/>
<path class="st0" d="M32.2,8.6h1.2v12.2h-1.2c-0.8,0-1.5-0.7-1.5-1.5l0,0V19c-0.2,0.4-0.4,0.7-0.7,0.9c-0.3,0.3-0.6,0.5-1,0.7
	s-0.7,0.3-1.1,0.4c-0.5,0.2-0.8,0.2-1.2,0.2c-0.9,0-1.7-0.1-2.5-0.4c-0.7-0.3-1.4-0.7-2-1.2c-0.6-0.6-1-1.2-1.3-2
	c-0.3-0.9-0.5-1.9-0.5-2.8c0-1,0.2-1.9,0.5-2.8c0.6-1.5,1.8-2.7,3.4-3.2c0.8-0.3,1.7-0.4,2.5-0.4s1.6,0.2,2.3,0.5
	c0.7,0.3,1.2,0.8,1.6,1.4v-0.1C30.6,9.4,31.3,8.7,32.2,8.6C32.2,8.7,32.2,8.7,32.2,8.6L32.2,8.6z M23.2,14.8c0,0.5,0.1,1.1,0.3,1.6
	c0.2,0.4,0.4,0.8,0.8,1.2c0.3,0.3,0.7,0.6,1.1,0.7c0.5,0.2,0.9,0.3,1.4,0.3c0.7,0,1.4-0.2,2-0.5c0.5-0.4,0.9-0.8,1.1-1.4
	c0.3-0.6,0.4-1.2,0.4-1.8s-0.1-1.2-0.4-1.8s-0.7-1-1.2-1.4c-0.6-0.4-1.3-0.6-2-0.6c-0.5,0-1,0.1-1.4,0.2c-0.4,0.2-0.8,0.4-1.1,0.7
	c-0.3,0.3-0.6,0.7-0.8,1.2C23.3,13.7,23.2,14.2,23.2,14.8z"/>
<path class="st0" d="M37,20.9v-9.4h-2.3v-1.1c0-0.9,0.7-1.6,1.5-1.6l0,0h0.7V8c0-0.7,0.1-1.5,0.4-2.1c0.2-0.6,0.6-1.1,1-1.5
	s0.9-0.7,1.5-0.9c0.6-0.2,1.2-0.3,1.8-0.3c1.2,0,2.3,0.3,3.2,1l-0.5,0.9c-0.1,0.3-0.4,0.6-0.7,0.7s-0.7,0.2-1,0.1
	c-0.2-0.1-0.5-0.1-0.8-0.1c-0.5,0-1,0.2-1.3,0.5C40.1,6.8,39.9,7.4,40,8v0.8h3.6v1.1c0,0.4-0.2,0.8-0.5,1.1
	c-0.3,0.3-0.7,0.5-1.1,0.4h-2.1v7.9c0,0.4-0.2,0.8-0.4,1.1c-0.3,0.3-0.7,0.5-1.1,0.5H37z"/>
<path class="st0" d="M46.9,20.9v-9.4h-2.3v-1.1c0-0.9,0.7-1.6,1.5-1.6l0,0h0.7V8c0-0.7,0.1-1.5,0.4-2.1c0.2-0.6,0.6-1.1,1-1.5
	c0.6-0.5,1.1-0.7,1.6-0.9c0.6-0.2,1.2-0.3,1.8-0.3c1.1,0,2.2,0.4,3.2,1l-0.5,0.9c-0.1,0.3-0.4,0.6-0.8,0.7c-0.3,0.1-0.7,0.2-1,0.1
	c-0.2-0.1-0.5-0.1-0.8-0.1c-0.5,0-1,0.2-1.3,0.5c-0.4,0.5-0.6,1.1-0.5,1.6v0.8h3.6v1.1c0,0.4-0.2,0.8-0.4,1.1
	c-0.3,0.3-0.7,0.4-1.1,0.4h-2.1v7.9c0,0.4-0.1,0.8-0.4,1.1c-0.3,0.3-0.7,0.5-1.1,0.5L46.9,20.9z"/>
<path class="st0" d="M58.6,15.5c0.1,0.8,0.5,1.5,1.1,1.9c0.7,0.5,1.6,0.8,2.5,0.8c0.8,0,1.7-0.2,2.4-0.6c0.3-0.1,0.6-0.2,0.9-0.1
	c0.3,0,0.6,0.2,0.8,0.4l1.1,1c-0.7,0.7-1.5,1.2-2.4,1.6c-0.9,0.3-1.9,0.5-2.9,0.5s-2-0.1-2.9-0.5c-0.8-0.3-1.5-0.8-2.1-1.4
	s-1-1.3-1.3-2.1c-0.3-0.9-0.5-1.8-0.5-2.8c0-0.9,0.1-1.8,0.5-2.6c0.3-0.8,0.7-1.5,1.3-2.1c0.6-0.6,1.2-1,2-1.4
	c0.9-0.3,1.8-0.5,2.8-0.5s1.9,0.1,2.8,0.5c0.8,0.3,1.5,0.8,2.1,1.4c0.6,0.7,1,1.5,1.2,2.4c0.3,1.1,0.3,2.3,0.2,3.4h-9.6V15.5z
	 M65.2,13c0-0.7-0.4-1.4-1-1.8c-0.6-0.4-1.4-0.6-2.2-0.6s-1.5,0.2-2.1,0.6c-0.7,0.4-1.1,1-1.3,1.8H65.2z"/>
<path class="st0" d="M74.2,5.2c0,0.5-0.2,1-0.6,1.3c-0.7,0.6-1.7,0.6-2.5,0c-0.3-0.3-0.5-0.8-0.4-1.3c0-0.5,0.2-1,0.6-1.3
	c0.7-0.6,1.7-0.6,2.5,0C74.1,4.2,74.3,4.7,74.2,5.2z M70.9,8.6v10.8c0,0.9,0.7,1.5,1.5,1.5h1.5V10.1c0-0.9-0.7-1.5-1.5-1.5l0,0H70.9
	z"/>
<path class="st0" d="M87.2,20.9c-0.4,0-0.8-0.1-1.1-0.5c-0.3-0.3-0.4-0.7-0.4-1.1v-4.9c0-0.8-0.2-1.7-0.8-2.3
	c-0.5-0.6-1.4-1-2.2-0.9c-0.4,0-0.9,0.1-1.3,0.3s-0.7,0.4-1,0.8c-0.3,0.3-0.5,0.7-0.7,1.1c-0.2,0.4-0.2,0.9-0.2,1.3v4.7
	c0,0.8-0.6,1.5-1.5,1.5h-1.5V8.6h1.3c0.8,0,1.5,0.7,1.5,1.5l0,0v0.1c0.6-0.5,1.2-1,1.9-1.4c0.7-0.3,1.4-0.5,2.1-0.5s1.4,0.1,2,0.4
	s1.2,0.7,1.7,1.2s0.9,1.2,1.1,1.9c0.3,0.8,0.4,1.7,0.4,2.6v6.4h-1.3V20.9z"/>
<path class="st0" d="M94,15.5c0.1,0.8,0.5,1.5,1.1,1.9c0.7,0.5,1.6,0.8,2.5,0.8s1.7-0.2,2.5-0.6c0.3-0.1,0.6-0.2,0.9-0.1
	c0.3,0,0.6,0.2,0.8,0.4l1.1,1c-0.7,0.7-1.5,1.2-2.4,1.5s-1.9,0.5-2.9,0.5s-2-0.1-2.9-0.5c-0.8-0.3-1.5-0.8-2.1-1.4s-1-1.3-1.3-2.1
	c-0.3-0.7-0.5-1.6-0.5-2.6c0-0.9,0.1-1.8,0.4-2.6s0.7-1.5,1.3-2.1c0.6-0.6,1.2-1,2-1.4c0.9-0.3,1.8-0.5,2.8-0.5s1.9,0.1,2.8,0.5
	c0.8,0.3,1.5,0.8,2.1,1.4c0.6,0.7,1,1.5,1.2,2.4c0.3,1.1,0.3,2.3,0.2,3.4L94,15.5z M100.6,13c0-0.7-0.4-1.4-1-1.8
	c-0.6-0.4-1.4-0.6-2.2-0.6c-0.8,0-1.5,0.2-2.1,0.6s-1,1.1-1.2,1.8H100.6z"/>
<g>
	<path class="st0" d="M17.9,46.5h-1.8c-0.3,0-0.6-0.1-0.8-0.3s-0.4-0.4-0.5-0.7l-3-9.4l-3,9.4c-0.1,0.3-0.3,0.5-0.5,0.7
		s-0.5,0.3-0.8,0.3H5.8L0,29.1h2.3c0.3,0,0.6,0.1,0.8,0.3c0.3,0.2,0.4,0.5,0.5,0.8l3.4,10l3.8-11.1h1.9l4,11.1l3.3-10
		c0.1-0.3,0.3-0.6,0.5-0.8c0.2-0.2,0.5-0.3,0.8-0.3h2.3L17.9,46.5z"/>
	<path class="st0" d="M29.1,30.8c0,0.5-0.2,1-0.5,1.3c-0.7,0.6-1.7,0.6-2.5,0c-0.4-0.3-0.6-0.8-0.6-1.3s0.2-1,0.5-1.3
		c0.7-0.6,1.7-0.6,2.5,0C28.9,29.8,29.1,30.3,29.1,30.8z M25.9,34.2V45c0,0.8,0.7,1.5,1.5,1.5l0,0h1.5V35.8c0-0.8-0.7-1.5-1.5-1.5
		L25.9,34.2z"/>
	<path class="st0" d="M35.7,32.2v2.4h3.4v1.3c0,0.7-0.5,1.3-1.2,1.3l0,0h-2.1v5c0,0.5,0.1,1,0.5,1.3c0.3,0.3,0.7,0.4,1.1,0.4h0.2
		h0.2c0.3-0.1,0.6,0,0.9,0.2c0.3,0.2,0.5,0.4,0.5,0.7l0.5,1.4c-0.4,0.2-0.8,0.3-1.2,0.4c-0.4,0.1-0.8,0.1-1.3,0.1
		c-1.2,0.1-2.3-0.2-3.2-1c-0.9-0.9-1.3-2.2-1.2-3.4v-5h-2.3v-1.4c0-0.3,0.1-0.7,0.4-0.9c0.2-0.2,0.6-0.4,0.9-0.4h1V31h1.6
		c0.4,0,0.7,0.1,1,0.3C35.6,31.5,35.7,31.9,35.7,32.2z"/>
	<path class="st0" d="M44.4,30.7V36c0.5-0.6,1.1-1.1,1.8-1.5c0.6-0.2,1.3-0.4,2-0.4c0.8,0,1.5,0.1,2.2,0.4c0.6,0.3,1.1,0.7,1.6,1.2
		c0.4,0.6,0.7,1.2,0.9,1.9c0.2,0.8,0.3,1.6,0.3,2.5v6.5h-1.4c-0.4,0-0.8-0.2-1.1-0.4c-0.3-0.3-0.4-0.7-0.4-1.1v-4.9
		c0.1-0.9-0.2-1.8-0.8-2.4c-0.5-0.5-1.3-0.8-2-0.8c-0.4,0-0.8,0.1-1.2,0.3s-0.7,0.4-1,0.7s-0.5,0.7-0.6,1.1
		c-0.1,0.4-0.2,0.9-0.2,1.3v4.7c0,0.8-0.7,1.5-1.5,1.5l0,0h-1.5V29.1H43c0.4,0,0.8,0.1,1.1,0.4C44.3,29.8,44.5,30.2,44.4,30.7z"/>
</g>
<g>
	<path class="st0" d="M17.4,59.5l-5.2,7.2c-0.1,0.2-0.3,0.3-0.5,0.2c-0.2,0-0.4-0.1-0.5-0.2l-5.1-7.3v11.1c0,0.8-0.7,1.5-1.5,1.5
		l0,0H2.8V54.8h3.4c0.2,0,0.5,0.1,0.6,0.3l5,7.1l5-7.2c0.1-0.2,0.4-0.3,0.6-0.3h3.3v17.4h-1.8c-0.4,0-0.8-0.2-1.1-0.4
		c-0.3-0.3-0.5-0.7-0.4-1.1V59.5z"/>
	<path class="st0" d="M27.3,56.4c0,0.5-0.2,1-0.6,1.3c-0.7,0.6-1.7,0.6-2.5,0c-0.4-0.3-0.6-0.8-0.5-1.3c0-0.5,0.2-1,0.5-1.3
		c0.7-0.6,1.7-0.6,2.5,0C27.1,55.4,27.3,55.9,27.3,56.4z M24,59.8v10.8c0,0.8,0.7,1.5,1.5,1.5H27V61.4c0-0.4-0.2-0.8-0.5-1.1
		s-0.6-0.5-1-0.5C25.5,59.8,24,59.8,24,59.8z"/>
	<path class="st0" d="M32.6,56.3v8.5l3.7-4.3c0.3-0.4,0.7-0.6,1.2-0.6h3.1l-5.2,5.8l5.9,6.5h-3.1c-0.5,0-0.9-0.2-1.2-0.5l-4.3-5v4
		c0,0.9-0.7,1.5-1.5,1.5h-1.5V54.8h1.5c0.4,0,0.8,0.1,1.1,0.4C32.5,55.5,32.6,55.9,32.6,56.3z"/>
	<path class="st0" d="M45.4,66.8c0.1,0.8,0.5,1.4,1.1,1.9c0.7,0.5,1.6,0.8,2.5,0.8c0.8,0,1.7-0.2,2.4-0.6c0.6-0.3,1.3-0.2,1.8,0.3
		l1.1,1.1c-0.7,0.7-1.5,1.2-2.4,1.5S50,72.3,49,72.3s-2-0.2-2.9-0.5c-0.8-0.3-1.5-0.8-2.1-1.4s-1-1.3-1.3-2.1
		c-0.3-0.9-0.5-1.8-0.5-2.7s0.1-1.8,0.5-2.6c0.3-0.8,0.7-1.5,1.3-2.1s1.3-1.1,2-1.3c0.9-0.3,1.8-0.5,2.7-0.5c1,0,1.9,0.2,2.8,0.5
		c0.8,0.3,1.5,0.8,2,1.4c0.6,0.7,1,1.5,1.2,2.4c0.3,1.1,0.3,2.3,0.2,3.4L45.4,66.8L45.4,66.8z M51.9,64.2c0-0.7-0.4-1.4-1-1.8
		c-0.6-0.4-1.4-0.6-2.2-0.6s-1.5,0.2-2.1,0.6c-0.6,0.4-1.1,1.1-1.2,1.8H51.9z"/>
</g>
<path class="st0" d="M-4.3,83.4"/>
</svg>
