<?xml version="1.0" encoding="utf-8"?>
<!-- Generator: Adobe Illustrator 24.1.0, SVG Export Plug-In . SVG Version: 6.00 Build 0)  -->
<svg version="1.1" id="圖層_1" xmlns:svgjs="http://svgjs.com/svgjs"
	 xmlns="http://www.w3.org/2000/svg" xmlns:xlink="http://www.w3.org/1999/xlink" x="0px" y="0px" viewBox="0 0 102.4 91.9"
	 style="enable-background:new 0 0 102.4 91.9;" xml:space="preserve">
<style type="text/css">
	.st0{fill:#FF485A;}
	.st1{fill:#454B66;}
</style>
<g transform="matrix(0.2,0,0,0.2,204.79999999999998,204.7999908447265)">
	<g>
		<path class="st0" d="M-544.8-958.4h-446.4c-18.1,0-32.8-14.7-32.8-32.8s14.7-32.8,32.8-32.8h446.4c18.1,0,32.8,14.7,32.8,32.8
			C-512-973-526.7-958.4-544.8-958.4z"/>
		<path class="st0" d="M-728.6-761.4h-262.6c-18.1,0-32.8-14.7-32.8-32.8s14.7-32.8,32.8-32.8h262.6c18.1,0,32.8,14.7,32.8,32.8
			C-695.8-776.1-710.5-761.4-728.6-761.4z"/>
	</g>
	<path class="st1" d="M-544.8-761.4h-52.5c-18.1,0-32.8-14.7-32.8-32.8c0-18.1,14.7-32.8,32.8-32.8h52.5c18.1,0,32.8,14.7,32.8,32.8
		C-512-776.1-526.7-761.4-544.8-761.4z"/>
	<path class="st0" d="M-544.8-564.5h-446.4c-18.1,0-32.8-14.7-32.8-32.8s14.7-32.8,32.8-32.8h446.4c18.1,0,32.8,14.7,32.8,32.8
		C-512-579.2-526.7-564.5-544.8-564.5z"/>
</g>
</svg>
