<?xml version="1.0" encoding="utf-8"?>
<svg version="1.1" id="cart" xmlns:svgjs="http://svgjs.com/svgjs"
	 xmlns="http://www.w3.org/2000/svg" xmlns:xlink="http://www.w3.org/1999/xlink" x="0px" y="0px" viewBox="0 0 100 100"
	 style="enable-background:new 0 0 100 100;" xml:space="preserve">
<!-- <style type="text/css">
	.st0{fill:#ccc;}
</style> -->
<g transform="matrix(1,0,0,1,0,5)">
	<g>
		<g>
			<path class="st0" d="M76.9,81c0,2.1,0.8,3.9,2.3,5.4c1.5,1.5,3.3,2.3,5.4,2.3c2.1,0,3.9-0.8,5.4-2.3c1.5-1.5,2.3-3.3,2.3-5.4
				c0-2.1-0.8-3.9-2.3-5.4c-1.5-1.5-3.3-2.3-5.4-2.3c-2.1,0-3.9,0.8-5.4,2.3C77.7,77.1,76.9,78.9,76.9,81z"/>
			<path class="st0" d="M98.9,12.9c-0.8-0.8-1.7-1.1-2.7-1.1H24c0-0.3-0.1-0.8-0.3-1.5c-0.1-0.7-0.3-1.3-0.3-1.8
				c-0.1-0.4-0.2-1-0.5-1.6c-0.2-0.6-0.5-1.1-0.8-1.5c-0.3-0.4-0.7-0.7-1.2-0.9c-0.5-0.3-1.1-0.4-1.7-0.4H3.8c-1,0-1.9,0.4-2.7,1.1
				C0.4,6,0,6.9,0,7.9s0.4,1.9,1.1,2.7c0.8,0.8,1.7,1.1,2.7,1.1h12.3l10.6,49.5c-0.1,0.2-0.5,0.9-1.2,2.3c-0.7,1.4-1.3,2.6-1.8,3.6
				c-0.4,1-0.7,1.8-0.7,2.4c0,1,0.4,1.9,1.1,2.7c0.8,0.8,1.7,1.1,2.7,1.1h3.8h53.8h3.8c1,0,1.9-0.4,2.7-1.1c0.8-0.8,1.1-1.7,1.1-2.7
				c0-1-0.4-1.9-1.1-2.7c-0.8-0.8-1.7-1.1-2.7-1.1H33.2c1-1.9,1.4-3.2,1.4-3.8c0-0.4-0.1-0.8-0.2-1.3s-0.2-1-0.4-1.6
				c-0.1-0.6-0.2-1-0.3-1.3l62.7-7.3c1-0.1,1.8-0.6,2.5-1.3c0.6-0.7,1-1.6,1-2.6V15.6C100,14.6,99.6,13.7,98.9,12.9z"/>
			<path class="st0" d="M23.1,81c0,2.1,0.8,3.9,2.3,5.4c1.5,1.5,3.3,2.3,5.4,2.3c2.1,0,3.9-0.8,5.4-2.3c1.5-1.5,2.3-3.3,2.3-5.4
				c0-2.1-0.8-3.9-2.3-5.4c-1.5-1.5-3.3-2.3-5.4-2.3c-2.1,0-3.9,0.8-5.4,2.3C23.8,77.1,23.1,78.9,23.1,81z"/>
		</g>
	</g>
</g>
</svg>
