<?xml version="1.0" encoding="utf-8"?>
<!-- Generator: Adobe Illustrator 24.1.0, SVG Export Plug-In . SVG Version: 6.00 Build 0)  -->
<svg version="1.1" xmlns="http://www.w3.org/2000/svg" xmlns:xlink="http://www.w3.org/1999/xlink" x="0px" y="0px"
	 viewBox="0 0 91.5 91.9" style="enable-background:new 0 0 91.5 91.9;" xml:space="preserve">
<style type="text/css">
	.st0{fill:#FF485A;}
	.st1{fill:#454B66;}
</style>
<g id="圖層_1" xmlns:svgjs="http://svgjs.com/svgjs">
</g>
<g id="圖層_2">
	<path class="st0" d="M67.7,33.4L13,88c-3.8,3.8-8.9,4.7-11.5,2.2S0,82.5,3.7,78.8l54.6-54.6c3.8-3.8,8.9-4.7,11.5-2.2
		C72.4,24.5,71.4,29.6,67.7,33.4z"/>
	<path class="st1" d="M89.4,11.3L82,18.7c-2.6,2.6-6.7,2.6-9.3,0s-2.6-6.7,0-9.3L80.1,2c2.6-2.6,6.7-2.6,9.3,0
		C91.9,4.6,91.9,8.8,89.4,11.3z"/>
	<path class="st0" d="M79.6,89.1L2.7,12.2c-3.1-3.1-3.6-7.7-1-10.3s7.2-2.1,10.3,1l76.9,76.9c3.1,3.1,3.6,7.7,1,10.3
		C87.3,92.7,82.7,92.2,79.6,89.1z"/>
</g>
</svg>
