<?xml version="1.0" encoding="utf-8"?>
<!-- Generator: Adobe Illustrator 24.1.0, SVG Export Plug-In . SVG Version: 6.00 Build 0)  -->
<svg version="1.1" id="Layer_1" xmlns="http://www.w3.org/2000/svg" xmlns:xlink="http://www.w3.org/1999/xlink" x="0px" y="0px"
	 viewBox="0 0 400.7 403.7" style="enable-background:new 0 0 400.7 403.7;" xml:space="preserve">
<g>
	<g>
		<path d="M399.8,185.2c-0.8-8.6-8-15.2-16.7-15.2H217c-9.2,0-16.7,7.5-16.7,16.7V220c0,9.2,7.5,16.7,16.7,16.7h112.6
			c-14.8,57.5-67.1,100.2-129.3,100.2c-78.6,0-141.5-68.2-132.7-148.6C73.7,132.5,127,78.1,182.7,70.9c38.2-4.9,73.8,6.4,100.9,28.1
			c6.7,5.3,16.2,4.9,22.2-1.1l23.7-23.7c6.9-6.9,6.5-18.3-1-24.6C293.8,20.5,249.1,3,200.3,3C82.4,3-12.2,105.7,1.3,226.3
			c10.4,93,86.4,167.6,179.5,176.5c107.6,10.3,200.2-65.3,217-166c1.9-10.9,2.9-22,2.9-33.4C400.7,197.2,400.4,191.2,399.8,185.2z"
			/>
	</g>
</g>
</svg>
