<?xml version="1.0" encoding="utf-8"?>
<!-- Generator: Adobe Illustrator 24.1.0, SVG Export Plug-In . SVG Version: 6.00 Build 0)  -->
<svg version="1.1" id="圖層_1" xmlns:svgjs="http://svgjs.com/svgjs"
	 xmlns="http://www.w3.org/2000/svg" xmlns:xlink="http://www.w3.org/1999/xlink" x="0px" y="0px" viewBox="0 0 100 100"
	 style="enable-background:new 0 0 100 100;" xml:space="preserve">
<!-- <style type="text/css">
	.st0{fill:#ccc;}
</style> -->
<g transform="matrix(1,0,0,1,0,5)">
	<g>
		<path class="st0" d="M93,9.1c-4.7-4.7-11.3-7-19.7-7c-2.3,0-4.7,0.3-7,1.3c-2.3,0.7-4.7,2-6.7,3.3c-2,1.3-4,2.7-5.3,3.7
			c-1.7,1.3-3,2.7-4.3,4c-1.3-1.3-2.7-2.7-4.3-3.7c-1.3-1.3-3.3-2.3-5.3-3.7c-2-1.3-4.3-2.3-6.7-3.3s-4.7-1.7-7-1.7
			c-8.3,0-15,2.3-19.7,7s-7,11-7,19.3c0,2.3,0.3,5,1.3,7.7s2,5,3,6.7c1,2,2.3,3.7,3.7,5.3c1.3,1.7,2.3,3,3,3.7s1,1,1.7,1.3
			l34.7,33.7c0.7,0.7,1.3,1,2.3,1s1.7-0.3,2.3-1l34.7-33.3c9-8.3,13.3-17,13.3-25C100,20.1,97.7,13.8,93,9.1z"/>
	</g>
</g>
</svg>
