<!-- <?xml version="1.0" encoding="utf-8"?> -->
<!-- Generator: Adobe Illustrator 24.1.0, SVG Export Plug-In . SVG Version: 6.00 Build 0)  -->
<svg id="magnifying-glass" xmlns:svgjs="http://svgjs.com/svgjs"
	 xmlns="http://www.w3.org/2000/svg" xmlns:xlink="http://www.w3.org/1999/xlink" x="0px" y="0px" viewBox="0 0 100 100"
	 style="enable-background:new 0 0 100 100;" xml:space="preserve">
	<!-- <style type="text/css">
		.st0{fill:#ccc;}
	</style> -->
	<g>
		<g>
			<path class="st0" d="M97.8,86.9L77.2,66.3c5-7.2,7.5-15.2,7.5-24c0-5.7-1.1-11.2-3.3-16.4c-2.2-5.2-5.2-9.7-9-13.5
				s-8.3-6.8-13.5-9C53.5,1.1,48,0,42.3,0c-5.7,0-11.2,1.1-16.4,3.3c-5.2,2.2-9.7,5.2-13.5,9c-3.8,3.8-6.8,8.3-9,13.5
				C1.1,31.1,0,36.6,0,42.3C0,48,1.1,53.5,3.3,58.7c2.2,5.2,5.2,9.7,9,13.5c3.8,3.8,8.3,6.8,13.5,9c5.2,2.2,10.7,3.3,16.4,3.3
				c8.8,0,16.8-2.5,24-7.5l20.6,20.6c1.4,1.5,3.2,2.3,5.4,2.3c2.1,0,3.9-0.8,5.4-2.3c1.5-1.5,2.3-3.3,2.3-5.4
				C100,90.2,99.3,88.4,97.8,86.9z M61.3,61.3c-5.3,5.3-11.6,7.9-19,7.9c-7.4,0-13.8-2.6-19-7.9c-5.3-5.3-7.9-11.6-7.9-19
				c0-7.4,2.6-13.8,7.9-19c5.3-5.3,11.6-7.9,19-7.9c7.4,0,13.8,2.6,19,7.9c5.3,5.3,7.9,11.6,7.9,19C69.2,49.7,66.6,56.1,61.3,61.3z"
				/>
		</g>
	</g>
</svg>
